<svg width="12" height="14" viewBox="0 0 12 14" fill="none" xmlns="http://www.w3.org/2000/svg">
<path d="M2.33333 0.333374H9.66667C9.77016 0.333374 9.87224 0.357471 9.96481 0.403756C10.0574 0.450041 10.1379 0.517243 10.2 0.600041L12 3.00004V13C12 13.1769 11.9298 13.3464 11.8047 13.4714C11.6797 13.5965 11.5101 13.6667 11.3333 13.6667H0.666667C0.489856 13.6667 0.320286 13.5965 0.195262 13.4714C0.0702379 13.3464 0 13.1769 0 13V3.00004L1.8 0.600041C1.8621 0.517243 1.94262 0.450041 2.03519 0.403756C2.12776 0.357471 2.22984 0.333374 2.33333 0.333374ZM10.6667 4.33337H1.33333V12.3334H10.6667V4.33337ZM10.3333 3.00004L9.33333 1.66671H2.66667L1.66667 3.00004H10.3333ZM4 5.66671V7.00004C4 7.53047 4.21071 8.03918 4.58579 8.41426C4.96086 8.78933 5.46957 9.00004 6 9.00004C6.53043 9.00004 7.03914 8.78933 7.41421 8.41426C7.78929 8.03918 8 7.53047 8 7.00004V5.66671H9.33333V7.00004C9.33333 7.8841 8.98214 8.73194 8.35702 9.35706C7.7319 9.98218 6.88406 10.3334 6 10.3334C5.11595 10.3334 4.2681 9.98218 3.64298 9.35706C3.01786 8.73194 2.66667 7.8841 2.66667 7.00004V5.66671H4Z" fill="currentColor"/>
</svg>
