<svg width="14" height="14" viewBox="0 0 14 14" fill="none" xmlns="http://www.w3.org/2000/svg">
<path d="M1.22671 10.3332C0.944887 9.84587 0.725817 9.32485 0.574707 8.78255C0.903579 8.61528 1.17977 8.3603 1.37273 8.04581C1.56568 7.73132 1.66788 7.36959 1.66802 7.00062C1.66816 6.63166 1.56623 6.26985 1.37351 5.95522C1.18079 5.64058 0.904787 5.3854 0.57604 5.21788C0.877398 4.12821 1.45119 3.13318 2.24337 2.32655C2.55277 2.5277 2.91179 2.63932 3.28069 2.64907C3.6496 2.65881 4.01401 2.5663 4.33359 2.38177C4.65318 2.19724 4.91548 1.92788 5.09146 1.60351C5.26744 1.27914 5.35024 0.912399 5.33071 0.543882C6.42545 0.260963 7.57419 0.261422 8.66871 0.545215C8.64934 0.913725 8.73231 1.28041 8.90843 1.60469C9.08455 1.92897 9.34695 2.1982 9.66659 2.38259C9.98624 2.56698 10.3507 2.65934 10.7196 2.64945C11.0884 2.63956 11.4474 2.5278 11.7567 2.32655C12.1427 2.71988 12.4854 3.16722 12.7734 3.66655C13.062 4.16588 13.278 4.68655 13.4254 5.21722C13.0965 5.38448 12.8203 5.63946 12.6274 5.95395C12.4344 6.26844 12.3322 6.63018 12.3321 6.99914C12.3319 7.3681 12.4339 7.72992 12.6266 8.04455C12.8193 8.35918 13.0953 8.61437 13.424 8.78188C13.1227 9.87156 12.5489 10.8666 11.7567 11.6732C11.4473 11.4721 11.0883 11.3604 10.7194 11.3507C10.3505 11.3409 9.98607 11.4335 9.66649 11.618C9.3469 11.8025 9.08461 12.0719 8.90862 12.3963C8.73264 12.7206 8.64984 13.0874 8.66937 13.4559C7.57463 13.7388 6.42589 13.7383 5.33137 13.4545C5.35074 13.086 5.26777 12.7194 5.09165 12.3951C4.91554 12.0708 4.65314 11.8016 4.33349 11.6172C4.01384 11.4328 3.64941 11.3404 3.28052 11.3503C2.91164 11.3602 2.55268 11.472 2.24337 11.6732C1.84937 11.2712 1.50777 10.8209 1.22671 10.3332ZM5.00004 10.4639C5.71046 10.8736 6.2446 11.5312 6.50004 12.3105C6.83271 12.3419 7.16671 12.3425 7.49937 12.3112C7.75497 11.5318 8.28937 10.8742 9.00004 10.4645C9.71019 10.0537 10.5471 9.91954 11.35 10.0879C11.5434 9.81588 11.71 9.52588 11.8487 9.22255C11.3017 8.61151 10.9995 7.82002 11 6.99988C11 6.15988 11.3134 5.37522 11.8487 4.77722C11.7091 4.47398 11.5417 4.1843 11.3487 3.91188C10.5462 4.08009 9.7099 3.9462 9.00004 3.53588C8.28962 3.12613 7.75548 2.46854 7.50004 1.68922C7.16737 1.65788 6.83337 1.65722 6.50071 1.68855C6.24511 2.46798 5.71071 3.12559 5.00004 3.53522C4.2899 3.94609 3.45303 4.08023 2.65004 3.91188C2.45708 4.18407 2.29013 4.47379 2.15137 4.77722C2.69842 5.38826 3.00063 6.17974 3.00004 6.99988C3.00004 7.83988 2.68671 8.62455 2.15137 9.22255C2.29102 9.52578 2.4584 9.81546 2.65137 10.0879C3.45385 9.91968 4.29018 10.0536 5.00004 10.4639ZM7.00004 8.99988C6.46961 8.99988 5.9609 8.78917 5.58583 8.4141C5.21075 8.03902 5.00004 7.53031 5.00004 6.99988C5.00004 6.46945 5.21075 5.96074 5.58583 5.58567C5.9609 5.2106 6.46961 4.99988 7.00004 4.99988C7.53047 4.99988 8.03918 5.2106 8.41425 5.58567C8.78933 5.96074 9.00004 6.46945 9.00004 6.99988C9.00004 7.53031 8.78933 8.03902 8.41425 8.4141C8.03918 8.78917 7.53047 8.99988 7.00004 8.99988ZM7.00004 7.66655C7.17685 7.66655 7.34642 7.59631 7.47144 7.47129C7.59647 7.34626 7.66671 7.17669 7.66671 6.99988C7.66671 6.82307 7.59647 6.6535 7.47144 6.52848C7.34642 6.40345 7.17685 6.33322 7.00004 6.33322C6.82323 6.33322 6.65366 6.40345 6.52864 6.52848C6.40361 6.6535 6.33337 6.82307 6.33337 6.99988C6.33337 7.17669 6.40361 7.34626 6.52864 7.47129C6.65366 7.59631 6.82323 7.66655 7.00004 7.66655Z" fill="currentColor"/>
</svg>
