<svg width="12" height="14" viewBox="0 0 12 14" fill="none" xmlns="http://www.w3.org/2000/svg">
<path d="M12 0.333374V13.6667H10.6667V9.00004H8V4.33337C8 3.27251 8.42143 2.25509 9.17157 1.50495C9.92172 0.754801 10.9391 0.333374 12 0.333374ZM10.6667 2.02004C10.1133 2.33337 9.33333 3.11337 9.33333 4.33337V7.66671H10.6667V2.02004ZM4 8.26671V13.6667H2.66667V8.26671C1.91387 8.11279 1.23733 7.70362 0.75143 7.1084C0.265532 6.51317 9.40437e-05 5.76841 0 5.00004V1.00004H1.33333V5.66671H2.66667V1.00004H4V5.66671H5.33333V1.00004H6.66667V5.00004C6.66657 5.76841 6.40114 6.51317 5.91524 7.1084C5.42934 7.70362 4.75279 8.11279 4 8.26671Z" fill="currentColor"/>
</svg>
